<svg width="108" height="70" viewBox="0 0 108 70" fill="none" xmlns="http://www.w3.org/2000/svg">
<g clip-path="url(#clip0_2_304)">
<path d="M44.5685 42.4223C45.0508 44.0724 44.2769 45.3429 43.4011 46.427C42.1614 47.9198 40.737 49.3049 39.2108 50.5036C32.0249 55.8537 23.7237 57.8579 14.6453 56.9816C12.338 56.7511 10.028 56.2085 7.46813 55.7461C7.97221 57.9735 9.89127 59.6429 10.5461 61.9158C9.45969 61.8468 8.96937 61.1798 8.54697 60.6372C6.8234 58.4044 5.11611 56.1246 3.47536 53.8131C2.6971 52.696 2.80838 52.0552 4.00607 51.4834C6.48427 50.2612 9.12011 49.8647 11.847 50.3258C11.9475 50.3561 12.0494 50.5425 12.2355 50.8063C10.9823 52.6582 8.38154 51.3534 6.77383 52.7868C9.98029 54.586 13.4921 55.0249 17.0012 55.1517C20.6774 55.2772 24.3005 55.0753 27.8162 54.0629C31.2654 53.0823 34.3248 51.465 37.3149 49.5675C40.339 47.7321 42.6731 45.325 44.5685 42.4223Z" fill="white"/>
</g>
<path d="M27.737 10.3021C28.2761 10.144 29.188 10.1772 29.7826 10.1511C30.1903 10.9085 29.6934 13.1946 30.5184 13.374C30.8513 13.4207 31.4941 13.2166 31.5705 12.788C31.5327 12.1232 31.3931 11.1109 31.3661 10.4752C31.2789 8.49748 30.9545 6.74964 30.9605 4.57003C30.9724 3.7132 31.0769 3.16082 30.3027 3.1552C29.3196 3.12909 28.9926 4.53171 28.5083 5.45474C27.5413 7.28689 26.5882 9.1204 25.6938 11.0581C25.5043 11.4897 25.1924 12.0076 25.2029 12.29C25.2148 12.685 25.9729 13.0829 26.4581 12.6522C26.8691 12.1299 27.4993 10.9117 27.737 10.3021ZM29.5598 6.5003C29.7204 6.8255 29.7774 8.19547 29.7008 8.75059C29.5009 8.89976 28.7468 8.96644 28.4373 8.83762C28.5961 8.17804 29.1474 6.90995 29.4344 6.488C29.4762 6.4921 29.518 6.4962 29.5598 6.5003ZM34.9575 3.38677C33.9772 3.58598 33.9008 5.13979 33.6732 6.28492C33.3459 7.9407 33.0393 9.16247 32.6515 10.8545C32.5066 11.5155 31.8711 13.2817 32.315 13.5925C32.6909 13.8825 33.3354 13.5378 33.5528 13.1091C33.6971 12.8278 33.9602 11.7425 34.0475 11.3431C34.4589 9.3158 34.8839 7.54301 35.2769 5.4295C35.439 4.61552 35.9657 3.19029 34.9575 3.38677ZM37.8557 3.67108C36.8754 3.87029 36.799 5.42409 36.5714 6.56923C36.2441 8.22501 35.9375 9.44678 35.5497 11.1388C35.4048 11.7998 34.7693 13.566 35.2132 13.8768C35.5891 14.1668 36.2336 13.8221 36.451 13.3934C36.5953 13.1121 36.8584 12.0268 36.9457 11.6274C37.3571 9.60011 37.7821 7.82732 38.1751 5.71381C38.3372 4.89983 38.8639 3.4746 37.8557 3.67108ZM44.4193 7.73292C44.3095 7.5815 44.096 7.47616 43.8854 7.46957C43.1299 7.42358 43.1014 7.92715 42.8601 8.94434C42.6078 10.0589 42.3545 11.9329 42.1285 13.0642C42.0538 13.3522 41.962 13.6667 41.9989 13.8391C42.0498 14.0129 42.3236 14.2086 42.531 14.243C43.0573 14.3227 43.3252 14.3209 43.5178 13.8616C43.7508 13.2936 43.9139 11.7202 44.0293 11.0704C44.056 10.8339 45.0755 10.2869 45.6655 10.176C45.9118 10.1158 46.5282 10.0215 46.8286 9.98067C47.1151 9.93845 47.6666 9.66904 47.6457 9.10436C47.6198 8.83456 47.3057 8.6209 47.0163 8.56437C46.5225 8.44561 45.9262 8.61216 45.5343 8.71438C45.1703 8.81933 44.6465 9.21805 44.3107 9.07258C44.3902 8.61621 44.5193 8.22097 44.4193 7.73292ZM49.3732 12.8746C49.7201 12.7962 50.3101 12.6852 50.7562 12.6024C51.4175 12.4844 51.7599 12.3211 52.4119 12.16C52.8022 12.0717 53.1202 11.6247 53.1346 11.2463C53.1628 10.9959 53.0304 10.4203 52.9517 10.2438C52.5108 8.77986 51.4137 8.26433 49.995 8.6034C49.4189 8.71567 48.7308 9.19674 48.3259 9.78998C47.8111 10.3584 47.5591 11.2198 47.6891 12.4422C47.9369 13.6199 48.2537 14.0589 49.3306 14.6287C49.9989 15.074 51.3847 15.0271 52.1532 14.5821C52.412 14.4105 52.5303 13.9861 52.2598 13.6361C51.7663 13.2641 51.2916 13.9771 50.38 13.6908C49.7811 13.5054 49.4329 13.3447 49.3732 12.8746ZM49.6693 10.2453C50.6269 9.62186 51.4567 9.75952 51.6999 10.8524C51.6036 11.082 51.1729 11.2789 50.8446 11.317C50.3459 11.3666 49.4647 11.5614 49.2186 11.4951C49.1353 11.2338 49.2741 10.5019 49.6693 10.2453ZM56.6821 8.9218C55.9203 8.93147 55.197 9.09963 54.6265 9.66256C54.4032 9.89384 54.2646 10.4991 54.2518 10.8636C54.2278 11.452 54.7612 11.9685 55.1958 12.3628C55.5546 12.6793 56.4472 13.2591 56.2963 13.8492C55.3318 14.9079 54.9106 13.7695 54.1222 14.0157C53.9766 14.0577 53.7922 14.1943 53.7502 14.3168C53.5449 15.014 53.7196 15.214 54.8741 15.5945C55.3632 15.755 56.1421 15.7188 56.5619 15.4928C57.1461 15.1844 57.6577 14.6438 57.7718 13.8814C57.9156 12.8546 57.1036 12.1842 56.5825 11.683C56.468 11.5733 55.7842 11.1405 55.856 10.7537C55.934 10.3113 56.3939 10.2298 57.1367 10.5136C57.4013 10.6662 57.9874 11.216 58.2911 11.0207C58.4399 10.9509 58.7777 10.7027 58.7767 10.3369C58.7758 9.84454 58.2715 9.44343 57.7393 9.16617C57.4731 9.02754 56.7533 8.91473 56.6821 8.9218ZM61.0884 14.0239C61.4353 13.9454 62.0254 13.8345 62.4714 13.7516C63.1327 13.6337 63.4751 13.4703 64.1272 13.3092C64.5175 13.2209 64.8354 12.7739 64.8499 12.3955C64.8781 12.1451 64.7457 11.5695 64.667 11.393C64.2261 9.9291 63.129 9.41357 61.7103 9.75263C61.1341 9.86491 60.4461 10.346 60.0412 10.9392C59.5264 11.5076 59.2744 12.369 59.4044 13.5914C59.6521 14.7691 59.969 15.2081 61.0458 15.7779C61.7141 16.2233 63.0999 16.1763 63.8685 15.7313C64.1273 15.5598 64.2455 15.1353 63.975 14.7853C63.4816 14.4134 63.0069 15.1264 62.0953 14.84C61.4963 14.6547 61.1482 14.4939 61.0884 14.0239ZM61.3845 11.3945C62.3422 10.7711 63.1719 10.9087 63.4151 12.0016C63.3188 12.2313 62.8881 12.4281 62.5598 12.4663C62.0612 12.5158 61.1799 12.7107 60.9338 12.6443C60.8506 12.383 60.9893 11.6511 61.3845 11.3945ZM66.8502 11.5509C67.361 11.6432 68.0167 11.0746 69.0805 11.0101C69.3962 11.0833 69.7885 11.8532 69.3869 12.292C69.1326 12.5484 67.9438 12.3474 67.2376 12.4891C66.8333 12.576 66.3128 12.8204 66.0958 12.996C65.7548 13.272 65.3377 13.7234 65.4079 14.4757C65.4137 14.7998 65.6594 15.1193 65.8852 15.3665C66.4246 16.0805 67.0234 16.3924 67.8094 16.7931C68.0353 16.9137 68.5956 17.0671 68.8372 17.0486C69.1762 17.0397 69.5949 16.5744 69.7238 16.3057C70.0313 15.5763 70.2568 14.8248 70.5009 14.033C70.6923 13.3344 71.0141 12.3532 70.9611 11.4478C70.9311 10.7134 70.5326 9.99918 70.0513 9.76912C69.1955 9.48824 68.4799 9.71342 67.5519 10.0725C67.0842 10.2235 66.5249 10.4359 66.5319 10.9992C66.5455 11.2538 66.5964 11.4275 66.8502 11.5509ZM68.148 13.6615C68.4143 13.6735 68.9516 13.6559 69.1155 13.8267C69.0606 14.3136 68.9092 15.2834 68.4647 15.3523C67.8069 15.1893 66.8087 14.796 66.8857 13.9877C67.126 13.73 67.6154 13.6374 68.148 13.6615ZM73.8094 10.616C73.6997 10.4646 73.4862 10.3593 73.2756 10.3527C72.5201 10.3067 72.4916 10.8102 72.2502 11.8274C71.9979 12.942 71.7446 14.816 71.5186 15.9473C71.4439 16.2353 71.3522 16.5498 71.3891 16.7222C71.44 16.896 71.7138 17.0917 71.9212 17.1261C72.4475 17.2058 72.7154 17.204 72.908 16.7446C73.141 16.1767 73.3041 14.6033 73.4195 13.9535C73.4461 13.717 74.4657 13.17 75.0557 13.0591C75.302 12.9989 75.9183 12.9046 76.2188 12.8638C76.5053 12.8215 77.0568 12.5521 77.0359 11.9875C77.0099 11.7177 76.6959 11.504 76.4064 11.4475C75.9127 11.3287 75.3163 11.4953 74.9245 11.5975C74.5605 11.7024 74.0366 12.1011 73.7008 11.9557C73.7804 11.4993 73.9094 11.1041 73.8094 10.616ZM81.8273 16.7194C81.5961 15.895 80.9313 16.2939 80.1246 16.3273C79.0345 16.3751 78.4315 15.7252 78.2669 14.9354C78.1146 14.1609 79.0897 13.2579 80.107 13.2311C80.4879 13.2263 80.8484 13.4023 81.3316 13.3653C81.714 13.3466 82.1141 12.9216 82.0498 12.3668C81.9792 11.8676 80.5611 11.7003 80.109 11.7122C78.8967 11.7199 77.8446 12.3059 77.2084 13.3266C76.9058 13.8876 76.6538 14.7491 76.7768 15.4081C77.1203 16.7359 78.0281 17.5564 79.4601 17.725C80.7527 17.8799 82.0291 17.4284 81.8273 16.7194ZM85.3101 12.2928C85.1692 12.293 85.4786 11.2966 85.6141 10.7191C85.7013 10.3197 86.0366 9.71967 85.822 9.24851C85.7077 9.01225 85.3456 8.85014 85.0173 8.88826C84.3747 8.96588 84.246 10.2332 84.0606 11.1293C83.8799 11.9837 83.6995 12.5849 83.4876 13.5909C83.1559 15.0352 82.9321 15.6463 82.6161 16.9515C82.4292 17.7349 82.357 18.5015 82.9607 18.6451C83.8306 18.8007 83.9074 18.119 84.0569 17.4164C84.334 16.3323 84.3797 15.6757 84.7139 14.7099C84.8785 14.3744 85.1111 14.0596 85.387 13.8616C85.635 13.6609 85.9666 13.4684 86.4264 13.5135C86.6397 13.7454 86.4054 15.3259 86.3817 15.6611C86.2002 17.1484 85.9214 18.3729 86.0465 18.6383C86.1715 18.9038 86.7705 19.0891 87.1131 18.7992C87.5006 18.4856 87.5637 17.5494 87.6485 16.6716C87.7425 15.8368 87.9189 14.7711 87.9538 14.0853C88.0062 13.1199 87.8388 12.1048 87.2398 11.9194C86.4366 11.6718 86.0378 12.336 85.3101 12.2928ZM14.2821 18.8282C13.5203 18.8379 12.7971 19.0061 12.2265 19.569C12.0033 19.8003 11.8647 20.4056 11.8518 20.77C11.8278 21.3584 12.3613 21.8749 12.7958 22.2692C13.1546 22.5857 14.0473 23.1656 13.8963 23.7556C12.9318 24.8144 12.5107 23.6759 11.7222 23.9221C11.5766 23.9641 11.3922 24.1007 11.3502 24.2232C11.1449 24.9204 11.3196 25.1204 12.4742 25.5009C12.9632 25.6614 13.7421 25.6253 14.162 25.3992C14.7461 25.0908 15.2578 24.5502 15.3718 23.7878C15.5156 22.7611 14.7036 22.0906 14.1825 21.5894C14.0681 21.4797 13.3843 21.0469 13.456 20.6601C13.534 20.2177 13.994 20.1362 14.7368 20.4201C15.0014 20.5726 15.5874 21.1224 15.8912 20.9271C16.0399 20.8573 16.3778 20.6092 16.3767 20.2434C16.3758 19.751 15.8716 19.3499 15.3393 19.0726C15.0732 18.934 14.3534 18.8212 14.2821 18.8282ZM20.8215 19.6245C20.7748 18.6634 21.0679 18.3124 21.2484 17.5846C21.4287 17.11 21.553 16.7565 20.8517 16.7299C19.7447 16.6775 19.7527 17.6067 19.5365 18.4013C19.4447 18.7158 19.281 19.5437 19.0254 19.6874C18.7852 19.8185 17.8254 19.7103 17.525 19.7512C17.2338 19.8351 16.9656 20.0901 16.894 20.3504C16.7977 20.58 16.8467 21.0209 17.122 21.2026C17.5042 21.437 18.5281 21.1014 18.7938 21.4932C18.6472 22.2946 18.5612 22.9332 18.4181 23.4537C18.376 23.7027 18.0897 24.7437 18.0197 24.99C17.9668 25.2098 17.5255 26.3762 17.5841 26.607C17.6597 26.8113 18.0914 26.9803 18.4026 26.9686C19.1103 26.9396 19.3678 25.4035 19.5186 24.9401C19.5917 24.6659 19.8517 23.6084 19.9109 23.3329C19.9903 23.0031 20.2648 21.4406 20.5546 21.244C20.8305 21.046 21.962 21.2554 22.419 21.0752C22.7289 20.9509 22.9415 20.5638 22.9002 20.18C22.8345 19.5125 21.1199 19.9772 20.8215 19.6245ZM24.4638 21.4587C24.9746 21.551 25.6303 20.9823 26.6941 20.9179C27.0099 20.9911 27.4021 21.761 27.0005 22.1998C26.7463 22.4562 25.5574 22.2552 24.8512 22.3969C24.447 22.4838 23.9264 22.7281 23.7094 22.9038C23.3684 23.1797 22.9513 23.6311 23.0216 24.3835C23.0273 24.7076 23.2731 25.0271 23.4988 25.2743C24.0382 25.9883 24.637 26.3002 25.4231 26.7008C25.649 26.8214 26.2092 26.9749 26.4508 26.9564C26.7899 26.9474 27.2086 26.4821 27.3374 26.2135C27.645 25.4841 27.8705 24.7326 28.1146 23.9407C28.3059 23.2421 28.6277 22.261 28.5747 21.3556C28.5447 20.6212 28.1462 19.9069 27.665 19.6769C26.8091 19.396 26.0935 19.6212 25.1656 19.9803C24.6978 20.1313 24.1386 20.3437 24.1456 20.907C24.1592 21.1615 24.21 21.3353 24.4638 21.4587ZM25.7616 23.5692C26.0279 23.5813 26.5652 23.5637 26.7291 23.7345C26.6743 24.2214 26.5228 25.1911 26.0783 25.2601C25.4205 25.0971 24.4224 24.7038 24.4993 23.8955C24.7396 23.6378 25.229 23.5451 25.7616 23.5692ZM31.4231 20.5238C31.3134 20.3724 31.0998 20.267 30.8893 20.2604C30.1337 20.2144 30.1052 20.718 29.8639 21.7352C29.6116 22.8498 29.3583 24.7238 29.1323 25.855C29.0576 26.1431 28.9658 26.4576 29.0028 26.63C29.0536 26.8038 29.3274 26.9994 29.5348 27.0338C30.0612 27.1136 30.329 27.1118 30.5216 26.6524C30.7546 26.0845 30.9177 24.5111 31.0332 23.8613C31.0598 23.6248 32.0793 23.0778 32.6694 22.9669C32.9156 22.9067 33.532 22.8124 33.8324 22.7715C34.1189 22.7293 34.6705 22.4599 34.6495 21.8952C34.6236 21.6254 34.3095 21.4118 34.0201 21.3552C33.5263 21.2365 32.93 21.403 32.5381 21.5052C32.1741 21.6102 31.6503 22.0089 31.3145 21.8634C31.3941 21.4071 31.5231 21.0118 31.4231 20.5238ZM38.8774 21.3957C38.8307 20.4346 39.1238 20.0836 39.3044 19.3558C39.4846 18.8812 39.6089 18.5277 38.9076 18.5011C37.8006 18.4488 37.8086 19.3779 37.5924 20.1725C37.5006 20.487 37.337 21.3149 37.0813 21.4586C36.8411 21.5898 35.8813 21.4816 35.5809 21.5224C35.2897 21.6064 35.0215 21.8614 34.9499 22.1216C34.8536 22.3513 34.9026 22.7921 35.1779 22.9739C35.5601 23.2083 36.584 22.8727 36.8498 23.2644C36.7032 24.0659 36.6172 24.7045 36.474 25.2249C36.4319 25.474 36.1456 26.5149 36.0756 26.7612C36.0227 26.9811 35.5814 28.1474 35.64 28.3782C35.7156 28.5826 36.1473 28.7515 36.4586 28.7398C37.1662 28.7108 37.4237 27.1748 37.5745 26.7113C37.6476 26.4372 37.9076 25.3796 37.9668 25.1041C38.0462 24.7743 38.3207 23.2118 38.6105 23.0152C38.8864 22.8172 40.0179 23.0267 40.4749 22.8464C40.7848 22.7221 40.9974 22.3351 40.9561 21.9512C40.8904 21.2837 39.1758 21.7485 38.8774 21.3957ZM47.6591 25.8017C48.1022 25.6201 48.6175 25.7973 49.158 25.7518C49.6705 25.7037 49.8777 24.7394 49.2742 24.4692C48.6011 24.1922 48.3376 24.4054 47.9121 24.1808C47.7299 23.7973 48.0882 22.1164 48.2188 21.7072C48.4349 21.0392 48.7896 19.7659 49.4445 19.8301C49.8346 19.8684 49.8742 20.3927 49.9682 20.6832C50.0623 20.9738 50.1407 21.4035 50.4038 21.4433C50.7133 21.5722 51.1996 21.5073 51.3565 21.1148C51.4977 20.8614 51.5109 20.2438 51.2934 19.6739C51.0002 18.8997 50.4312 18.3234 49.4463 18.4378C48.4335 18.5494 47.8366 19.2223 47.3073 20.169C46.8324 21.0086 46.6364 21.7489 46.4043 22.8092C46.3296 23.0973 46.3458 23.7037 46.2016 23.8583C46.0248 24.052 46.1875 23.9835 45.7958 23.9592C45.432 23.9375 45.0044 24.1066 44.9111 24.435C44.8521 24.5839 44.7744 24.7733 44.946 25.0011C45.3788 25.5358 45.3683 25.2535 46.0322 25.4874C46.1364 26.3134 45.7274 27.694 45.8379 28.4643C45.9116 28.9357 46.924 29.0773 47.1817 28.5399C47.483 27.8662 47.4357 26.1596 47.6591 25.8017ZM53.112 22.6514C53.0022 22.5 52.7887 22.3946 52.5781 22.388C51.8226 22.3421 51.7941 22.8456 51.5527 23.8628C51.3004 24.9774 51.0471 26.8514 50.8211 27.9827C50.7464 28.2707 50.6547 28.5852 50.6916 28.7576C50.7425 28.9314 51.0163 29.1271 51.2237 29.1615C51.75 29.2412 52.0179 29.2394 52.2105 28.78C52.4435 28.2121 52.6066 26.6387 52.722 25.9889C52.7487 25.7524 53.7682 25.2054 54.3582 25.0945C54.6045 25.0343 55.2209 24.94 55.5213 24.8992C55.8078 24.8569 56.3593 24.5875 56.3384 24.0228C56.3124 23.753 55.9984 23.5394 55.7089 23.4829C55.2152 23.3641 54.6189 23.5306 54.227 23.6329C53.863 23.7378 53.3391 24.1365 53.0034 23.9911C53.0829 23.5347 53.212 23.1394 53.112 22.6514ZM59.2087 23.2354C58.755 23.2612 58.5149 23.3924 58.1523 23.61C57.5758 23.9754 57.4889 24.1216 57.112 24.591C56.3972 25.4352 56.0637 27.02 56.6878 28.1081C57.0449 28.565 57.8029 29.0895 58.5056 29.2288C59.3446 29.4095 60.0121 29.2359 60.5808 28.94C61.5755 28.3625 62.3371 27.3541 62.3076 26.24C62.4524 24.4538 61.2698 23.0719 59.2087 23.2354ZM57.8694 26.7471C57.8288 25.8569 58.6433 24.6287 59.4113 24.5634C60.407 24.4782 61.1255 25.6036 60.7431 26.7476C60.5472 27.3614 59.8886 27.8313 59.4425 27.9141C58.4963 28.0604 57.9041 27.4397 57.8694 26.7471ZM64.788 26.4552C64.7359 26.0422 65.4723 24.1312 64.9496 23.6439C64.8105 23.5036 64.4916 23.4583 64.3289 23.5267C63.6814 23.7726 63.6293 24.4849 63.4981 25.4003C63.4248 25.8011 63.3188 26.3673 63.1957 26.9601C63.0571 27.5654 62.9711 28.204 62.876 28.6729C62.756 29.2378 62.6284 29.7457 62.9022 29.9414C63.0445 30.0538 63.5198 30.0864 63.7568 29.983C64.0233 29.8685 64.2653 29.4703 64.4966 29.0429C64.894 28.266 65.3297 27.7743 65.7919 27.1726C66.0401 26.8453 66.2605 26.3887 66.6724 26.3588C66.8543 26.9955 66.4816 27.8029 66.2964 28.5724C66.2217 28.8604 66.1144 29.1875 66.1219 29.3711C66.1627 30.1346 67.0454 30.0524 67.5088 29.69C68.1101 29.2285 68.661 28.3402 69.1092 27.7371C69.2628 27.499 69.4582 27.265 69.7386 27.1518C69.7735 27.7179 69.5917 28.2064 69.4672 28.6865C69.3598 29.1401 69.1592 29.7956 69.2003 30.306C69.2719 31.1711 70.2986 31.0608 70.6013 30.4997C70.7611 30.206 70.8705 29.4853 70.9608 29.0581C71.0575 28.5753 71.1417 28.0772 71.2492 27.6235C71.4142 26.9083 71.9384 25.1312 71.3535 24.8206C70.6479 24.456 70.0461 25.2972 69.7081 25.6719C69.4987 25.9046 69.198 26.1986 68.9871 26.4452C68.7762 26.6917 68.5297 26.8785 68.1144 27.1894C68.2508 25.8525 68.2779 24.111 66.89 24.5516C66.3494 24.7236 65.8237 25.3894 65.4686 25.7906C65.2763 25.9968 64.9522 26.3729 64.788 26.4552ZM78.6818 25.7083C78.5409 25.7085 78.8503 24.7121 78.9858 24.1346C79.073 23.7353 79.4083 23.1352 79.1937 22.664C79.0794 22.4278 78.7173 22.2657 78.389 22.3038C77.7464 22.3814 77.6177 23.6488 77.4323 24.5449C77.2516 25.3992 77.0712 26.0004 76.8593 27.0064C76.5276 28.4508 76.3038 29.0618 75.9878 30.367C75.8009 31.1505 75.7287 31.917 76.3324 32.0606C77.2023 32.2163 77.2791 31.5346 77.4286 30.8319C77.7057 29.7479 77.7514 29.0913 78.0856 28.1254C78.2502 27.7899 78.4828 27.4751 78.7587 27.2771C79.0067 27.0764 79.3383 26.8839 79.7981 26.929C80.0114 27.1609 79.7771 28.7414 79.7534 29.0767C79.5719 30.5639 79.2931 31.7884 79.4182 32.0539C79.5432 32.3193 80.1422 32.5047 80.4848 32.2148C80.8723 31.9011 80.9354 30.9649 81.0202 30.0871C81.1142 29.2524 81.2906 28.1866 81.3255 27.5008C81.3779 26.5354 81.2105 25.5203 80.6115 25.335C79.8082 25.0874 79.4095 25.7515 78.6818 25.7083ZM83.8775 30.3252C84.2244 30.2467 84.8145 30.1358 85.2605 30.0529C85.9218 29.935 86.2642 29.7716 86.9162 29.6105C87.3065 29.5222 87.6245 29.0752 87.639 28.6968C87.6672 28.4464 87.5348 27.8708 87.456 27.6943C87.0151 26.2304 85.9181 25.7149 84.4993 26.0539C83.9232 26.1662 83.2351 26.6473 82.8302 27.2405C82.3154 27.8089 82.0635 28.6703 82.1935 29.8927C82.4412 31.0704 82.758 31.5094 83.8349 32.0792C84.5032 32.5246 85.889 32.4776 86.6576 32.0326C86.9164 31.8611 87.0346 31.4366 86.7641 31.0866C86.2707 30.7147 85.796 31.4276 84.8844 31.1413C84.2854 30.956 83.9372 30.7952 83.8775 30.3252ZM84.1736 27.6958C85.1313 27.0724 85.961 27.21 86.2042 28.3029C86.1079 28.5326 85.6772 28.7294 85.3489 28.7676C84.8503 28.8171 83.969 29.012 83.7229 28.9456C83.6397 28.6843 83.7784 27.9524 84.1736 27.6958ZM90.53 26.322C90.4203 26.1706 90.2067 26.0652 89.9962 26.0587C89.2406 26.0127 89.2121 26.5162 88.9708 27.5334C88.7185 28.648 88.4652 30.522 88.2392 31.6533C88.1645 31.9413 88.0727 32.2558 88.1097 32.4282C88.1605 32.602 88.4343 32.7977 88.6417 32.8321C89.1681 32.9118 89.4359 32.91 89.6285 32.4506C89.8615 31.8827 90.0246 30.3093 90.1401 29.6595C90.1667 29.423 91.1862 28.876 91.7763 28.7651C92.0225 28.7049 92.6389 28.6106 92.9393 28.5698C93.2258 28.5275 93.7774 28.2581 93.7564 27.6934C93.7305 27.4236 93.4164 27.21 93.127 27.1535C92.6332 27.0347 92.0369 27.2013 91.645 27.3035C91.281 27.4084 90.7572 27.8071 90.4214 27.6617C90.501 27.2053 90.63 26.8101 90.53 26.322ZM95.4839 31.4637C95.8308 31.3852 96.4209 31.2743 96.8669 31.1915C97.5282 31.0735 97.8706 30.9102 98.5226 30.7491C98.9129 30.6608 99.2309 30.2137 99.2454 29.8354C99.2736 29.585 99.1412 29.0094 99.0624 28.8328C98.6215 27.369 97.5245 26.8534 96.1057 27.1925C95.5296 27.3048 94.8415 27.7858 94.4366 28.3791C93.9218 28.9475 93.6699 29.8089 93.7999 31.0313C94.0476 32.209 94.3644 32.648 95.4413 33.2178C96.1096 33.6631 97.4954 33.6162 98.264 33.1712C98.5228 32.9996 98.641 32.5752 98.3705 32.2251C97.8771 31.8532 97.4023 32.5662 96.4908 32.2799C95.8918 32.0945 95.5436 31.9338 95.4839 31.4637ZM95.78 28.8344C96.7377 28.2109 97.5674 28.3486 97.8106 29.4415C97.7143 29.6711 97.2836 29.868 96.9553 29.9061C96.4567 29.9557 95.5754 30.1505 95.3293 30.0842C95.2461 29.8228 95.3848 29.091 95.78 28.8344Z" fill="white"/>
<defs>
<clipPath id="clip0_2_304">
<rect width="28.5931" height="36.6797" fill="white" transform="matrix(-0.32779 0.94475 -0.957234 -0.289315 45.1973 42.6123)"/>
</clipPath>
</defs>
</svg>
