<svg width="1553" height="900" viewBox="0 0 1553 900" fill="none" xmlns="http://www.w3.org/2000/svg">
<rect width="1548" height="845" fill="black"/>
<line x1="0.500244" y1="6.14691e-09" x2="0.500104" y2="900" stroke="#2A2A2A" stroke-dasharray="16 24"/>
<line x1="97.5002" y1="6.14691e-09" x2="97.5001" y2="900" stroke="#2A2A2A" stroke-dasharray="16 24"/>
<line x1="194.5" y1="6.14691e-09" x2="194.5" y2="900" stroke="#2A2A2A" stroke-dasharray="16 24"/>
<line x1="291.5" y1="6.14691e-09" x2="291.5" y2="900" stroke="#2A2A2A" stroke-dasharray="16 24"/>
<line x1="388.501" y1="6.14691e-09" x2="388.501" y2="900" stroke="#2A2A2A" stroke-dasharray="16 24"/>
<line x1="485.501" y1="6.14691e-09" x2="485.501" y2="900" stroke="#2A2A2A" stroke-dasharray="16 24"/>
<line x1="582.501" y1="6.14691e-09" x2="582.501" y2="900" stroke="#2A2A2A" stroke-dasharray="16 24"/>
<line x1="679.501" y1="6.14691e-09" x2="679.501" y2="900" stroke="#2A2A2A" stroke-dasharray="16 24"/>
<line x1="776.501" y1="6.14691e-09" x2="776.501" y2="900" stroke="#2A2A2A" stroke-dasharray="16 24"/>
<line x1="873.501" y1="6.14691e-09" x2="873.501" y2="900" stroke="#2A2A2A" stroke-dasharray="16 24"/>
<line x1="970.501" y1="6.14691e-09" x2="970.501" y2="900" stroke="#2A2A2A" stroke-dasharray="16 24"/>
<line x1="1067.5" y1="6.14691e-09" x2="1067.5" y2="900" stroke="#2A2A2A" stroke-dasharray="16 24"/>
<line x1="1164.5" y1="6.14691e-09" x2="1164.5" y2="900" stroke="#2A2A2A" stroke-dasharray="16 24"/>
<line x1="1261.5" y1="6.14691e-09" x2="1261.5" y2="900" stroke="#2A2A2A" stroke-dasharray="16 24"/>
<line x1="1358.5" y1="6.14691e-09" x2="1358.5" y2="900" stroke="#2A2A2A" stroke-dasharray="16 24"/>
<line x1="1455.5" y1="6.14691e-09" x2="1455.5" y2="900" stroke="#2A2A2A" stroke-dasharray="16 24"/>
<line x1="1552.5" y1="6.14691e-09" x2="1552.5" y2="900" stroke="#2A2A2A" stroke-dasharray="16 24"/>
</svg>
